# xmcd
#
# Track frame offsets: 
#        184
#        15041
#        33609
#        47193
#        60676
#        81263
#        97443
#        116403
#        136277
#        153648
#        169996
#
# Disc length: 2583 seconds
#
# Revision: 0
# Processed by: cddbd v1.5.2PL0 Copyright (c) Steve Scherf et al.
# Submitted via: ExactAudioCopy v0.99pb3
#
DISCID=930a150b
DTITLE=Moran - Tabac
DYEAR=2006
DGENRE=
TTITLE0=Caféine
TTITLE1=Désordres
TTITLE2=Cyberhole
TTITLE3=Montréal
TTITLE4=Chaos
TTITLE5=Soupir
TTITLE6=Blind
TTITLE7=Marguerite
TTITLE8=Poméo
TTITLE9=Triste
TTITLE10=Vers à soie
EXTD=
EXTT0=
EXTT1=
EXTT2=
EXTT3=
EXTT4=
EXTT5=
EXTT6=
EXTT7=
EXTT8=
EXTT9=
EXTT10=
PLAYORDER=
